<?xml version="1.0" standalone="no"?>
<!DOCTYPE svg PUBLIC "-//W3C//DTD SVG 1.1//EN" "http://www.w3.org/Graphics/SVG/1.1/DTD/svg11.dtd" >
<svg xmlns="http://www.w3.org/2000/svg">
<metadata></metadata>
<defs>
<font id="rudabold" horiz-adv-x="1110" >
<font-face units-per-em="2048" ascent="1638" descent="-410" />
<missing-glyph horiz-adv-x="481" />
<glyph unicode="&#xd;" horiz-adv-x="681" />
<glyph unicode=" "  horiz-adv-x="481" />
<glyph unicode="&#x09;" horiz-adv-x="481" />
<glyph unicode="&#xa0;" horiz-adv-x="481" />
<glyph unicode="!" horiz-adv-x="581" d="M152 0v223h282v-223h-282zM162 1432h260l-33 -1031h-196z" />
<glyph unicode="&#x22;" horiz-adv-x="768" d="M98 1477h209v-68l-35 -459h-141zM459 1477h211v-68l-37 -459h-141l-31 424z" />
<glyph unicode="#" horiz-adv-x="1169" d="M35 375v203h196l41 266h-166v203h199l60 376h200l-59 -376h235l60 376h203l-60 -376h166v-203h-199l-41 -266h168v-203h-200l-58 -375h-200l57 375h-236l-57 -375h-203l58 375h-164zM434 578h236l41 266h-236z" />
<glyph unicode="$" horiz-adv-x="1087" d="M57 98q18 55 30.5 89t21 57.5t18.5 50.5q235 -107 434 -107q180 0 180 197q0 84 -66.5 139.5t-203.5 119t-174 84t-94 67.5q-106 88 -106.5 250.5t87.5 267t254 135.5v194h199v-188q143 -14 295 -55l-39 -201q-223 43 -344 43t-163 -35t-42 -121t49 -131q66 -55 269 -145 q57 -25 127.5 -67t94 -68.5t50.5 -65.5q53 -74 53 -192q0 -170 -96 -286t-258 -146v-224h-197v217q-92 10 -186 40t-193 81z" />
<glyph unicode="%" horiz-adv-x="1662" d="M92 1145q0 166 94.5 244.5t231.5 78.5t231 -78.5t94 -244.5t-95 -247t-230 -81t-230.5 81t-95.5 247zM281 1142.5q0 -143.5 138 -143.5t138 143.5t-138 143.5t-138 -143.5zM348 -18l418 823l321 696h209l-389 -790l-348 -729h-211zM920 300q0 167 94 246t231 79 t231.5 -79t94.5 -246t-94.5 -247t-231.5 -80t-231 80t-94 247zM1108 299q0 -143 137 -143t137 143t-137 143t-137 -143z" />
<glyph unicode="&#x26;" horiz-adv-x="1390" d="M47 384q0 155 84 256t195 146q-176 117 -176 314q0 156 108.5 257t303 101t294.5 -103.5t100 -246.5q0 -209 -215 -332q152 -102 258 -231q66 115 119 254l203 -60q-70 -182 -186 -362q104 -158 192 -395l-233 -9q-25 82 -107 224q-213 -224 -469 -224q-213 0 -342 128 t-129 283zM293 387q0 -98 64.5 -160.5t162.5 -62.5t190.5 57.5t159.5 147.5q-141 184 -338 303q-111 -39 -175 -113t-64 -172zM387 1110q0 -150 160 -231q74 32 123 91.5t49 136.5t-41 122t-127 45q-164 0 -164 -164z" />
<glyph unicode="'" horiz-adv-x="425" d="M109 1481h208v-70l-34 -457h-144l-28 428z" />
<glyph unicode="(" horiz-adv-x="688" d="M125 688q0 709 412 942l102 -139q-272 -178 -272 -800.5t272 -805.5l-102 -139q-182 102 -297 330.5t-115 611.5z" />
<glyph unicode=")" horiz-adv-x="688" d="M47 -115q272 182 272 805t-272 801l105 139q410 -236 409.5 -942t-409.5 -942z" />
<glyph unicode="*" horiz-adv-x="860" d="M57 1118l64 203l41 -14l198 -99l-36 215v41h211v-41l-37 -215l198 99l41 14l64 -203l-41 -12l-230 -33l183 -166l28 -28l-161 -138l-23 33l-129 211l-131 -213l-25 -33l-155 138l26 30l181 166l-228 33z" />
<glyph unicode="+" horiz-adv-x="1290" d="M90 498v202h451v455h207v-455h450v-202h-450v-459h-207v459h-451z" />
<glyph unicode="," horiz-adv-x="589" d="M115 -274q65 83 65 233v258h236v-111q0 -319 -172 -454z" />
<glyph unicode="-" horiz-adv-x="653" d="M78 569v201h497v-201h-497z" />
<glyph unicode="." horiz-adv-x="567" d="M139 0v229h283v-229h-283z" />
<glyph unicode="/" horiz-adv-x="946" d="M-8 -201l377 867l313 766h233l-366 -848l-324 -785h-233z" />
<glyph unicode="0" horiz-adv-x="1220" d="M106 717q0 434 148 598q72 78 157 110.5t199.5 32.5t199.5 -32.5t157 -110.5q145 -162 145 -598q0 -438 -145 -598q-72 -80 -157 -113t-199.5 -33t-199.5 33t-157 113q-147 162 -148 598zM352 721q0 -311 61.5 -426t198 -115t196.5 113t60 377t-32.5 385t-85 158.5 t-141.5 37.5t-142 -39q-115 -86 -115 -491z" />
<glyph unicode="1" horiz-adv-x="1091" d="M72 1063l428 383l237 -16v-1229l305 4v-205h-892v205l348 -4l12 989h-10l-273 -283z" />
<glyph unicode="2" horiz-adv-x="1157" d="M88 1274q76 63 212 123.5t278 60.5q190 0 312 -99t122 -265q0 -119 -69 -243t-185 -269l-307 -373v-12l591 12v-209h-938v178q137 145 305.5 345t212.5 257.5t96 156.5t52 175q0 133 -154 133q-90 0 -209.5 -43t-220.5 -106z" />
<glyph unicode="3" horiz-adv-x="1079" d="M16 104l80 177q250 -99 432 -99q106 0 147.5 50.5t41.5 179.5t-58.5 187t-191.5 58h-225v195q276 23 342 47q96 35 96 158t-46 158.5t-173 35.5t-340 -26l-29 192q164 41 357 41q475 0 475 -373q0 -227 -195 -311v-10q240 -66 240 -354q0 -193 -114 -315t-355 -122 q-117 0 -238 33t-184 66z" />
<glyph unicode="4" horiz-adv-x="1146" d="M43 311v164l338 981l229 -31l-313 -911v-10l399 10l54 530h180v-526l133 4v-211h-133l2 -311h-240l4 311h-653z" />
<glyph unicode="5" horiz-adv-x="1091" d="M41 129l78 176q250 -123 432 -123q109 0 150.5 55.5t41.5 192.5t-57 189.5t-348 52.5l-197 -4l113 764h674v-203l-475 8l-52 -363q139 -8 236.5 -28.5t181.5 -67.5q172 -92 172 -344q0 -217 -125 -339t-342 -122q-121 0 -241.5 39t-180.5 78z" />
<glyph unicode="6" horiz-adv-x="1177" d="M106 680q0 453 170 627q82 82 178.5 116.5t200.5 34.5q184 0 308 -45l41 -16l-54 -193q-176 43 -314 43t-198.5 -73.5t-77.5 -303.5q104 10 187 11q254 0 388 -101.5t134 -331t-125 -352.5t-355.5 -123t-356.5 164t-126 543zM354 520q0 -229 76 -299q57 -47 182 -47 t173.5 59.5t48.5 202t-49.5 192.5t-194.5 50q-100 0 -236 -21v-137z" />
<glyph unicode="7" horiz-adv-x="1052" d="M55 1223v209h944v-148l-598 -1300l-251 20l598 1221v12z" />
<glyph unicode="8" horiz-adv-x="1153" d="M80 401q0 117 66.5 212.5t158.5 142.5q-174 126 -174 331q0 166 114.5 268.5t330 102.5t330 -104.5t114.5 -268.5q0 -221 -201 -346q252 -135 252 -354q0 -170 -137 -291t-365.5 -121t-358.5 128t-130 300zM330 393q0 -217 246.5 -217t246.5 195q0 102 -66.5 161.5 t-238.5 116.5q-96 -37 -142 -93.5t-46 -162.5zM367 1096q0 -90 55 -150.5t186 -114.5q174 68 174 244q0 190 -207.5 190.5t-207.5 -169.5z" />
<glyph unicode="9" horiz-adv-x="1173" d="M106 989q0 221 124 345t352.5 124t355.5 -166t127 -550t-119 -576.5t-379 -192.5q-96 0 -202.5 32t-163.5 65l-58 32l74 179q205 -105 365 -105q96 0 139 43q88 84 94 359q-135 -25 -246 -25q-217 0 -340 107.5t-123 328.5zM344 999q0 -131 40 -185t177 -54q111 0 254 41 q0 373 -90 424q-51 31 -172 30.5t-165 -63t-44 -193.5z" />
<glyph unicode=":" horiz-adv-x="677" d="M205 0v229h282v-229h-282zM205 903v230h282v-230h-282z" />
<glyph unicode=";" horiz-adv-x="677" d="M162 -274q65 83 65 233v258h236v-111q0 -319 -172 -454zM205 903v230h282v-230h-282z" />
<glyph unicode="&#x3c;" horiz-adv-x="1339" d="M137 514v176l1108 492v-230l-811 -344v-12l811 -346v-227z" />
<glyph unicode="=" horiz-adv-x="1304" d="M90 293v203h1122v-203h-1122zM90 696v205h1122v-205h-1122z" />
<glyph unicode="&#x3e;" horiz-adv-x="1343" d="M117 23v227l809 346v12l-809 344v230l1106 -492v-176z" />
<glyph unicode="?" horiz-adv-x="985" d="M47 1329q25 14 66 35.5t157.5 57.5t221.5 36q197 0 321.5 -109.5t124.5 -279.5q0 -156 -88 -252q-47 -51 -79 -77.5t-94.5 -70.5t-92 -71t-58 -79t-30.5 -118h-211v21q0 106 38.5 189t99 132.5t122.5 92.5q147 102 147 243q0 164 -182 164q-76 0 -171 -24.5t-212 -73.5z M254 0v223h281v-223h-281z" />
<glyph unicode="@" horiz-adv-x="1701" d="M119 666.5q0 187.5 66.5 340t174.5 242.5q227 188 514 188.5t493 -173.5t206 -471q0 -229 -126 -392t-276 -163q-84 0 -120.5 55t-44.5 162h-9q-115 -217 -252 -217q-94 0 -168.5 103t-74.5 345t83 341t255 99q121 0 329 -55q-4 -285 -4 -406.5t1 -163.5t5.5 -66.5 t9.5 -30t15 -5.5q63 0 137 111t74 274q0 223 -140.5 354.5t-395.5 131.5t-417.5 -152.5t-162.5 -438.5t161.5 -451t397.5 -165q57 0 184 23l21 -154q-92 -31 -220 -30.5t-255 48.5t-231.5 140t-167 240.5t-62.5 336zM698 688q0 -266 68 -266q72 0 144.5 175t72.5 337 q-49 16 -143.5 16t-118 -48t-23.5 -214z" />
<glyph unicode="A" d="M-6 0l407 1432h291l406 -1432h-248l-90 352h-426l-92 -352h-248zM379 553h336l-162 668h-12z" />
<glyph unicode="B" horiz-adv-x="1304" d="M199 8l10 660l-10 764q272 26 473 26q440 0 440 -393q0 -98 -25.5 -146.5t-42 -71t-40.5 -40.5q-41 -29 -95 -53v-9q240 -63 240 -317q0 -262 -145 -367q-129 -88 -318 -88q-162 0 -487 35zM438 180q147 -18 262 -18t156 59.5t41 198.5t-59.5 186t-169.5 47l-230 2v-475z M438 838q147 -2 247.5 -2t140.5 49t40 171t-46 170t-154 48l-228 -12v-424z" />
<glyph unicode="C" horiz-adv-x="1236" d="M131 700q0 518 229 672q74 49 154 67.5t236.5 18.5t324.5 -41l-26 -200q-190 29 -350 29h-6q-163 0 -208 -48q-100 -104 -100 -504q0 -186 35 -310t83 -166t141 -42t195.5 28.5t221.5 84.5l74 -183q-23 -14 -63 -36.5t-162.5 -59.5t-245.5 -37q-250 0 -391.5 174.5 t-141.5 552.5z" />
<glyph unicode="D" horiz-adv-x="1341" d="M199 0v1432q301 27 447 27q4 -1 6 -1q146 0 243.5 -40t157 -104.5t94.5 -160.5q61 -162 61 -420q0 -760 -567 -760q-92 0 -442 27zM436 1239l2 -1042q111 -17 199 -17q154 0 207 49q104 96 104 501t-98 482q-47 39 -180 39z" />
<glyph unicode="E" horiz-adv-x="1095" d="M199 0v1432h774v-209l-535 6l-10 -402h494v-202h-494l10 -420l535 4v-209h-774z" />
<glyph unicode="F" horiz-adv-x="1067" d="M199 0v1432h774v-215l-537 6l-8 -400h479v-200h-479l10 -623h-239z" />
<glyph unicode="G" horiz-adv-x="1302" d="M131 721q0 444 168 600q84 78 185.5 107.5t274.5 29.5t363 -43l-28 -198q-272 28 -369 28h-6q-190 0 -238 -49q-96 -96 -96 -476t100 -487q53 -57 199.5 -57t210.5 23v387l-213 12v174h444v-713q-180 -86 -428 -86q-98 0 -177 17.5t-153.5 66.5t-125.5 131 q-111 182 -111 533z" />
<glyph unicode="H" horiz-adv-x="1409" d="M199 0v1432h239l-6 -601h545l-6 601h239v-1432h-239l6 625h-543l4 -625h-239z" />
<glyph unicode="I" horiz-adv-x="641" d="M199 -2l8 659l-8 775h241l-8 -635l8 -799h-241z" />
<glyph unicode="J" horiz-adv-x="700" d="M-27 -8l27 203q72 -16 136 -17h4q62 0 81 19q51 39 51 280v955h238v-938q0 -520 -373 -521q-68 0 -164 19z" />
<glyph unicode="K" horiz-adv-x="1271" d="M199 0l10 727l-10 705h241v-1432h-241zM444 737l506 695h287l-537 -684v-13l592 -735h-301z" />
<glyph unicode="L" horiz-adv-x="956" d="M199 0v1432h239l-10 -1223l522 4v-213h-751z" />
<glyph unicode="M" horiz-adv-x="1681" d="M190 0l48 1432h323l273 -869h12l268 869h326l49 -1432h-238l-4 1196h-10l-268 -844h-254l-275 844h-12l2 -1196h-240z" />
<glyph unicode="N" horiz-adv-x="1431" d="M199 0v1432h313l514 -1156h10l-28 1156h227v-1432h-313l-512 1153h-11l27 -1153h-227z" />
<glyph unicode="O" horiz-adv-x="1392" d="M131 719q0 436 168 596q82 78 177 110.5t220 32.5t220.5 -32.5t177.5 -110.5q168 -160 168 -596q0 -498 -234 -658q-131 -88 -332 -88q-98 0 -178 19.5t-153.5 70t-122.5 132.5q-111 178 -111 524zM383 730q0 -155 12.5 -249t35 -152.5t63.5 -89t87 -42t140 -11.5t156 35 q135 76 135 492q0 172 -16.5 276.5t-58.5 161.5t-96.5 75.5t-144.5 18.5t-143 -18.5t-95 -75.5t-58.5 -161.5t-16.5 -259.5z" />
<glyph unicode="P" horiz-adv-x="1236" d="M199 0l8 666l-8 764q284 29 494 29q3 -1 7 -1q212 0 321 -125t109 -366q0 -295 -147 -410q-127 -102 -317 -102l-228 10v-465h-239zM438 678q119 -20 248 -20q1 0 2 -1q127 1 160 59t33 268t-58 253q-37 31 -159.5 31t-225.5 -17v-573z" />
<glyph unicode="Q" horiz-adv-x="1423" d="M131 719q0 217 43 367.5t125 228.5t178 110.5t221 32.5t219.5 -32.5t176.5 -110.5q168 -160 168 -593t-195 -618v-12l283 -86l-78 -205l-408 191q-82 -18 -190 -18q-1 -1 -3 -1q-105 0 -198 33q-94 33 -175 113t-124 231.5t-43 368.5zM383 730q0 -155 12.5 -249 t35 -152.5t63.5 -89t87 -42t140 -11.5t156 35q135 76 135 492q0 172 -16.5 276.5t-58.5 161.5t-95.5 75.5t-143.5 18.5t-144 -18.5t-96 -75.5t-58.5 -161.5t-16.5 -259.5z" />
<glyph unicode="R" horiz-adv-x="1366" d="M199 0l10 672l-6 758q229 28 493 28q494 0 494 -461q0 -340 -299 -424v-10l334 -563h-281l-278 541l-226 8v-549h-241zM438 754q162 -18 284 -19h2q120 1 168 61t48 216.5t-49 212.5q-43 45 -177 45t-274 -19z" />
<glyph unicode="S" d="M76 98q18 55 30.5 89t20.5 57.5t18 50.5q236 -107 435 -107q180 0 180 197q0 84 -67.5 141.5t-187.5 111.5t-137.5 63.5t-62.5 34t-62.5 41t-49 48t-43.5 64.5q-35 88 -35 172q0 174 119.5 285.5t340.5 111.5q162 0 320 -45l55 -14l-39 -201q-223 43 -340.5 43t-163 -38 t-45.5 -121t56.5 -129t131.5 -81.5t121 -56t69.5 -32t64.5 -35t63.5 -43t53 -51t45.5 -64.5q39 -80 39 -172q0 -199 -129 -322t-338 -123q-106 0 -222 31t-178 62z" />
<glyph unicode="T" horiz-adv-x="1019" d="M-8 1221v211h1026v-211l-400 6l5 -1227h-238l6 1227z" />
<glyph unicode="U" horiz-adv-x="1400" d="M199 625v807h239v-752q0 -223 24 -326q22 -104 74 -137q50 -32 159 -32h7q114 1 163.5 33t73.5 134.5t24 327.5v752h239v-789q0 -389 -131 -532q-68 -76 -156 -107t-215 -31q-254 0 -377.5 143.5t-123.5 508.5z" />
<glyph unicode="V" horiz-adv-x="1165" d="M33 1432h252l282 -1221h13l284 1221h254l-395 -1432h-299z" />
<glyph unicode="W" horiz-adv-x="1607" d="M57 1432h240l131 -1199h12l201 854h299l201 -854h12l129 1199h242l-211 -1432h-309l-207 877h-13l-204 -877h-316z" />
<glyph unicode="X" horiz-adv-x="1185" d="M10 0l422 717l-407 715h272l281 -564h12l282 564h273l-408 -719l424 -713h-274l-293 555h-10l-299 -555h-275z" />
<glyph unicode="Y" horiz-adv-x="1120" d="M6 1432h260l281 -711h10l283 711h260l-430 -908l4 -524h-244l6 524z" />
<glyph unicode="Z" horiz-adv-x="1140" d="M59 0v201l719 1020v14l-676 -14v211h955v-201l-709 -1022v-10l717 10v-209h-1006z" />
<glyph unicode="[" horiz-adv-x="675" d="M201 -254v1866h405v-185l-186 7v-1510l186 4v-182h-405z" />
<glyph unicode="\" horiz-adv-x="950" d="M31 1432h233l311 -766l377 -867h-231l-324 785z" />
<glyph unicode="]" horiz-adv-x="675" d="M68 -72l190 -4v1510l-190 -7v185h405v-1866h-405v182z" />
<glyph unicode="^" horiz-adv-x="1064" d="M102 666l308 768h245l306 -768l-218 -23l-204 598h-13l-204 -598z" />
<glyph unicode="_" horiz-adv-x="1138" d="M27 -166h1085v-168h-1085v168z" />
<glyph unicode="`" horiz-adv-x="1275" d="M332 1477l65 188l537 -190l-45 -140z" />
<glyph unicode="a" horiz-adv-x="1204" d="M94 369.5q0 197.5 128 288t370 90.5l196 -3q0 199 -31.5 241t-123.5 42t-206 -22.5t-241 -69.5l-63 174q29 12 77 31.5t179 51.5t239 32q408 0 408 -443v-782h-152l-32 129h-11q-23 -18 -60.5 -44t-141 -69t-187.5 -43q-158 0 -253 99.5t-95 297zM338 373.5 q0 -115.5 29.5 -157.5t96 -42t147.5 23.5t177 68.5v287q-84 12 -227 12t-178 -35q-45 -41 -45 -156.5z" />
<glyph unicode="b" horiz-adv-x="1226" d="M168 57v1493h238v-364q172 39 288 39q406 0 406 -609q0 -643 -445 -643q-94 0 -239.5 25t-247.5 59zM406 199q119 -29 225 -29t139 31q84 70 84 450q0 197 -25 291q-10 41 -38.5 58.5t-51 20.5t-77.5 3q-113 0 -256 -41v-784z" />
<glyph unicode="c" horiz-adv-x="1093" d="M127 602q0 356 164 498q147 125 389 125q160 0 315 -39l-26 -187q-223 29 -342 29t-168 -49q-86 -92 -86 -393t116 -387q43 -31 112 -31t156.5 24.5t198.5 71.5q23 -70 70 -174q-18 -12 -50 -31.5t-134.5 -52.5t-208.5 -33q-236 0 -371 154t-135 475z" />
<glyph unicode="d" horiz-adv-x="1236" d="M127 582q0 422 201 569q104 74 252 74q100 0 251 -39v364h238v-1550h-156l-26 121h-13q-59 -45 -98 -69.5t-111.5 -51.5t-142.5 -27q-178 0 -286.5 153t-108.5 456zM451 203q27 -25 90 -25q119 0 247 68l43 22v707q-125 51 -240.5 51t-150.5 -43q-68 -85 -68 -396 q0 -319 79 -384z" />
<glyph unicode="e" horiz-adv-x="1206" d="M127 599q0 626 508 626q227 0 341 -131t114 -435v-147h-715q0 -227 78 -299q51 -45 137 -45q166 0 350 61l64 23l57 -180q-201 -99 -422 -99q-512 0 -512 626zM377 690l471 10v62q0 12 -2 54t-4 51.5t-7.5 41t-12.5 38.5t-18 27.5t-25.5 26t-33.5 15.5q-29 14 -109.5 14 t-132.5 -18.5t-80 -65.5t-36 -102.5t-10 -153.5z" />
<glyph unicode="f" horiz-adv-x="739" d="M86 954v146l137 28q12 246 113.5 347.5t281.5 101.5l148 -6l-16 -193q-102 6 -155.5 6t-78.5 -14q-55 -33 -55 -237h264v-185h-264v-948h-238v954h-137z" />
<glyph unicode="g" horiz-adv-x="1116" d="M80 786q0 231 142.5 335t371.5 104q127 0 471 -25v-143l-131 -21q61 -135 61 -256q0 -180 -126 -292.5t-347 -114.5q-8 -80 -8 -90.5t189.5 -88t256 -136t66.5 -148.5q0 -131 -132 -204t-349 -73q-199 0 -379 45l-57 15l26 186q356 -53 523 -53t167 51q0 33 -54 65.5 t-267 122t-213 93.5l84 235q-295 96 -295 393zM295 796.5q0 -137.5 54 -186.5t184.5 -49t181.5 48t51 179t-14.5 179.5t-20.5 52.5q-12 8 -174 16q-145 0 -203.5 -51t-58.5 -188.5z" />
<glyph unicode="h" horiz-adv-x="1243" d="M158 0v1550h237v-428q227 104 387 104q1 0 1 1q159 1 227 -109t69 -327v-791h-237v733q0 174 -29 227.5t-115 53.5q-53 0 -128.5 -19.5t-174.5 -60.5v-934h-237z" />
<glyph unicode="i" horiz-adv-x="634" d="M180 1358v192h275v-192h-275zM199 0v1198h237v-1198h-237z" />
<glyph unicode="j" horiz-adv-x="671" d="M-51 -350l26 198q80 -12 150 -12t90.5 48t20.5 239v1075h237v-1073q0 -260 -98.5 -375t-257.5 -115zM217 1358v192h275v-192h-275z" />
<glyph unicode="k" horiz-adv-x="1169" d="M168 0l10 657l-10 885h238v-1542h-238zM408 643l456 549h303l-501 -539v-10l538 -643h-307z" />
<glyph unicode="l" horiz-adv-x="573" d="M168 0v1550h238v-1550h-238z" />
<glyph unicode="m" horiz-adv-x="1927" d="M190 0v1198h156l27 -119h10q248 147 424 147q1 0 1 1q175 0 241 -156q80 49 125 74.5t128.5 53.5t159.5 28q166 0 233.5 -114t67.5 -327v-786h-237v729q0 170 -23.5 226.5t-104.5 56.5t-170 -35t-141 -68q8 -82 9 -127v-782h-238v733q0 227 -53 262q-25 16 -76 17 q-127 0 -301 -97v-915h-238z" />
<glyph unicode="n" horiz-adv-x="1269" d="M190 0v1198h156l27 -119h10q252 145 425 145q1 0 2 1q172 0 234 -113t62 -321v-791h-238v731q0 182 -23.5 230.5t-103 48.5t-171 -33t-142.5 -66v-911h-238z" />
<glyph unicode="o" horiz-adv-x="1224" d="M127 598q0 307 111.5 467t375 160t374 -160t110.5 -467t-110.5 -466t-374 -159t-375 159t-111.5 466zM373 599q0 -267 50 -352t191.5 -85t190.5 85t49 352t-49 351t-190.5 84t-191.5 -84t-50 -351z" />
<glyph unicode="p" horiz-adv-x="1239" d="M168 -340v1538h156l28 -123h10q4 2 36 24.5t49.5 34t55.5 32t68 30.5q86 29 158 29q178 0 280.5 -148.5t102.5 -455.5q0 -647 -467 -648q-88 0 -239 25v-338h-238zM406 209q139 -37 237 -37t137 29q86 68 86 440q0 137 -7 215t-30.5 113t-45 41t-78 6t-133 -24.5 t-166.5 -71.5v-711z" />
<glyph unicode="q" horiz-adv-x="1228" d="M127 596.5q0 353.5 115.5 491t353.5 137.5q94 0 210 -18.5t255 -55.5v-1491h-238v371q-133 -57 -245 -57q-1 -1 -3 -1q-109 0 -179 30t-134 97q-135 143 -135 496.5zM373 618q0 -352 71 -411q37 -31 105 -31q127 0 274 49v772q-115 29 -234.5 29t-156.5 -37 q-59 -70 -59 -371z" />
<glyph unicode="r" horiz-adv-x="851" d="M190 0v1198h150q18 -96 31 -125h12q74 59 171 105.5t156.5 46.5t108.5 -17l-18 -213q-51 4 -92 4q-154 0 -281 -90v-909h-238z" />
<glyph unicode="s" horiz-adv-x="1048" d="M96 80l58 192q239 -102 399 -102q80 0 121 37t41 119t-53.5 117.5t-125 57t-79.5 24.5t-47 15.5t-74 25t-89 41t-79 61.5q-68 82 -68 204q0 162 103.5 257.5t301 95.5t388.5 -66l-37 -188q-213 51 -341 51t-157.5 -34t-29.5 -95.5t58 -99t165.5 -69.5t130.5 -39t70 -24.5 t66.5 -32t50 -40t44.5 -56.5q33 -74 33 -163q0 -180 -107.5 -288t-303.5 -108q-98 0 -208 27t-231 80z" />
<glyph unicode="t" horiz-adv-x="786" d="M76 952v148l147 28l47 283h183v-278h239v-185h-241v-569q0 -137 17 -169t91 -32l131 6v-190q-70 -16 -162 -17q-162 0 -238.5 85t-76.5 327v563h-137z" />
<glyph unicode="u" horiz-adv-x="1267" d="M164 408v790h237v-743q0 -197 27 -236q29 -35 104 -35q123 0 308 99v915h237v-1198h-155l-29 119h-10q-2 -2 -46 -26.5t-61.5 -33t-62.5 -30t-76 -29.5q-86 -27 -156 -27q-317 1 -317 435z" />
<glyph unicode="v" horiz-adv-x="1013" d="M12 1198h246l240 -999h12l244 999h245l-354 -1198h-285z" />
<glyph unicode="w" horiz-adv-x="1538" d="M27 1198h237l160 -1038h10l176 876h310l176 -876h12l156 1038h239l-239 -1198h-320l-174 881h-12l-174 -881h-318z" />
<glyph unicode="x" horiz-adv-x="1081" d="M18 0l373 627l-360 571h262l235 -440h13l231 440h262l-360 -573l373 -625h-271l-239 483h-13l-235 -483h-271z" />
<glyph unicode="y" horiz-adv-x="1021" d="M-10 1198h264l254 -844h10l250 844h250l-420 -1128l-113 -410h-245l168 451z" />
<glyph unicode="z" horiz-adv-x="999" d="M53 0v172l600 829v13l-573 -15v199h850v-172l-598 -831v-13l610 15v-197h-889z" />
<glyph unicode="{" horiz-adv-x="907" d="M98 608v178q156 23 204 62t48 158v198q0 195 86 300.5t283 105.5l133 -6l-10 -174q-109 6 -159 6t-73.5 -44t-23.5 -192v-196q0 -158 -72 -230q-55 -55 -113 -72v-12q184 -68 185 -307v-217q0 -141 20.5 -191.5t81.5 -50.5l154 6l10 -178q-88 -4 -133 -4q-369 0 -369 395 v246q0 121 -46 158t-206 61z" />
<glyph unicode="|" horiz-adv-x="581" d="M195 -178v1739h192v-1739h-192z" />
<glyph unicode="}" horiz-adv-x="907" d="M53 -248l10 178q70 -6 143 -6t93 50.5t20 191.5v217q0 240 185 307v12q-57 16 -103 60q-82 84 -82 242v196q0 147 -23.5 191.5t-86.5 44.5l-146 -6l-10 174q88 6 133 6q197 0 283 -105.5t86 -300.5v-198q0 -119 48 -158t204 -62v-178q-160 -25 -206 -61.5t-46 -157.5 v-246q0 -395 -369 -395z" />
<glyph unicode="~" horiz-adv-x="1097" d="M39 614q135 148 252 148q80 0 268.5 -69.5t250.5 -69.5t163 57l71 -125q-35 -51 -99 -94t-135 -43t-266.5 69.5t-262 69.5t-166.5 -70z" />
<glyph unicode="&#xa1;" horiz-adv-x="579" d="M152 973v225h282v-225h-282zM164 -231l31 1028h196l31 -1028h-258z" />
<glyph unicode="&#xa2;" horiz-adv-x="1093" d="M127 591q0 552 412 621v209h196v-198q123 -4 260 -37l-26 -187q-223 29 -324 29q-164 0 -218 -89t-54 -371.5t116 -368.5q43 -31 112 -31t157 24.5t198 71.5l70 -174q-117 -86 -291 -108v-222h-196v222q-412 57 -412 609z" />
<glyph unicode="&#xa3;" horiz-adv-x="1189" d="M131 0v205h184v485h-184v178h186q12 326 142.5 458t351.5 132q135 0 283 -41l-25 -192q-205 29 -281 28q-137 0 -182 -70.5t-51 -314.5h375v-178h-377v-483l510 4v-211h-932z" />
<glyph unicode="&#xa4;" horiz-adv-x="1343" d="M137 317l121 121q-78 121 -78 276.5t80 282.5l-119 121l135 137l123 -122q133 82 279.5 81.5t273.5 -79.5l125 120l135 -135l-120 -119q86 -125 86 -283.5t-82 -283.5l121 -119l-138 -135l-121 119q-133 -82 -280.5 -82t-284.5 86l-121 -123zM383 715.5q0 -156.5 80 -231 t225.5 -74.5t216 71.5t70.5 231t-79 234.5t-216 75t-217 -75t-80 -231.5z" />
<glyph unicode="&#xa5;" horiz-adv-x="1171" d="M35 1432h260l283 -699h12l278 699h260l-335 -703l270 4v-166h-963v166l271 -4zM100 283v166h963v-166h-363v-283h-239v283h-361z" />
<glyph unicode="&#xa6;" horiz-adv-x="581" d="M195 -178v735h192v-735h-192zM195 825v736h192v-736h-192z" />
<glyph unicode="&#xa7;" horiz-adv-x="1134" d="M102 -80l64 197q231 -105 405 -105q90 0 123 25q41 29 41 117q0 80 -94 122q-72 33 -160 56.5t-173 56.5t-143.5 102.5t-58.5 176.5q0 154 130 250q-86 80 -86 221t108.5 229t301 88t345.5 -53l-39 -197q-172 51 -336 51q-78 0 -115.5 -25.5t-37.5 -94t67.5 -111.5 t164 -68.5t192.5 -57.5t163.5 -101.5t67.5 -173.5q0 -141 -133 -254q68 -76 68 -197q0 -172 -122 -268t-302 -96q-104 0 -215 27.5t-168 56.5zM334 676q0 -63 74 -96q45 -20 157.5 -54.5t169.5 -54.5q70 70 70 124t-46 84t-113.5 50.5t-117.5 36.5q-90 27 -133 45 q-61 -57 -61 -135z" />
<glyph unicode="&#xa8;" horiz-adv-x="1204" d="M260 1386v191h254v-191h-254zM692 1386v191h252v-191h-252z" />
<glyph unicode="&#xa9;" horiz-adv-x="1718" d="M131 655.5q0 317.5 210 526.5t522.5 209t517 -207t204.5 -526.5t-204.5 -526.5t-523 -207t-522.5 207t-204 524.5zM297 655.5q0 -264.5 148.5 -417t411.5 -152.5t412.5 153.5t149.5 418t-149.5 418t-407.5 153.5t-411.5 -154.5t-153.5 -419zM494 649q0 272 116 369 q100 84 267 84q45 0 117.5 -11.5t101.5 -23.5l-21 -162q-121 18 -195.5 18.5t-105.5 -14.5q-66 -33 -65 -260q0 -156 33.5 -204t88.5 -48q115 0 252 52l45 -160q-106 -72 -271 -72t-264 104.5t-99 327.5z" />
<glyph unicode="&#xaa;" horiz-adv-x="890" d="M86 868q0 133 94 197q72 49 238 57q55 4 145 4q0 100 -24.5 130t-96.5 30q-131 0 -247 -45l-39 -16l-43 153q182 70 333 70q299 0 299 -307v-531h-129l-28 78h-8q-141 -96 -256 -96q-238 0 -238 276zM272 865.5q0 -60.5 23.5 -85t69.5 -24.5q80 0 198 57v158 q-51 4 -141 4t-120 -24.5t-30 -85z" />
<glyph unicode="&#xab;" horiz-adv-x="1067" d="M66 690l307 522l176 -104l-252 -412v-12l252 -412l-176 -104zM524 690l305 518l175 -104l-248 -408v-12l248 -408l-175 -106z" />
<glyph unicode="&#xac;" horiz-adv-x="1224" d="M41 498v204h1108v-460h-209v256h-899z" />
<glyph unicode="&#xad;" horiz-adv-x="712" d="M111 530v203h495v-203h-495z" />
<glyph unicode="&#xae;" horiz-adv-x="1718" d="M131 655.5q0 317.5 210 526.5t522.5 209t517 -207t204.5 -526.5t-204.5 -526.5t-523 -207t-522.5 207t-204 524.5zM297 655.5q0 -264.5 148.5 -417t411.5 -152.5t412.5 153.5t149.5 418t-149.5 418t-407.5 153.5t-411.5 -154.5t-153.5 -419zM551 244l6 391l-4 436 q172 16 317 16q309 0 310 -270q0 -106 -44 -171.5t-112 -90.5v-6l164 -305h-217l-123 291l-109 2v-293h-188zM739 700q61 -6 129 -6t90.5 28t22.5 92.5t-23 89t-84 24.5l-133 -8z" />
<glyph unicode="&#xaf;" horiz-adv-x="1200" d="M281 1393v157h651v-157h-651z" />
<glyph unicode="&#xb0;" horiz-adv-x="724" d="M37 1145q0 166 94 244.5t231.5 78.5t231.5 -78.5t94 -244.5t-95 -247t-230.5 -81t-230.5 81t-95 247zM225 1142.5q0 -143.5 137.5 -143.5t137.5 143.5t-137.5 143.5t-137.5 -143.5z" />
<glyph unicode="&#xb1;" horiz-adv-x="1187" d="M90 18v203h1006v-203h-1006zM90 670v200h399v312h207v-312h400v-200h-400v-324h-207v324h-399z" />
<glyph unicode="&#xb2;" horiz-adv-x="806" d="M98 1354q47 33 134 64.5t185.5 31.5t171.5 -60.5t73 -160.5q0 -145 -254 -426l-29 -33v-8l303 12v-164h-561v129q131 143 209 238q150 174 149.5 240.5t-65.5 66.5q-104 0 -246 -82z" />
<glyph unicode="&#xb3;" horiz-adv-x="763" d="M82 657l45 152q145 -51 218 -51t92.5 23.5t19.5 82t-32 81t-110 22.5h-106v143q152 10 190.5 26.5t38.5 65.5t-16 64q-18 20 -121 20q-88 -4 -160 -14l-16 155q127 23 219 23q281 0 281 -223q0 -106 -78 -154q-10 -6 -33 -16v-8q135 -37 135 -193q0 -119 -64.5 -190.5 t-209.5 -71.5q-68 0 -141.5 16.5t-151.5 46.5z" />
<glyph unicode="&#xb4;" horiz-adv-x="1275" d="M342 1475l537 190l65 -188l-557 -142z" />
<glyph unicode="&#xb6;" horiz-adv-x="1427" d="M84 909.5q0 284.5 124 403.5t363 119h672v-1768h-237v1561h-230v-1561h-237v713q-223 6 -339 127t-116 405.5z" />
<glyph unicode="&#xb7;" horiz-adv-x="671" d="M180 709q0 82 46 117.5t112 35.5q158 0 158 -155q0 -80 -46.5 -119t-111 -39t-111.5 39t-47 121z" />
<glyph unicode="&#xb8;" horiz-adv-x="1032" d="M391 -193q92 -10 144.5 -10t74 12.5t21.5 60.5t-27 155l144 22q41 -113 40.5 -205t-63.5 -150.5t-170 -58.5q-63 0 -164 19v155z" />
<glyph unicode="&#xb9;" horiz-adv-x="802" d="M74 1251l286 197l168 -12v-662h179v-164h-570v164h205v477h-8l-166 -131z" />
<glyph unicode="&#xba;" horiz-adv-x="759" d="M33 1020q0 211 78.5 319.5t269 108.5t269.5 -108.5t79 -319.5t-79 -319.5t-269.5 -108.5t-269 108.5t-78.5 319.5zM227 1021q0 -159 33 -210t120 -51t121 51t34 210t-34 210t-121 51t-120 -51t-33 -210z" />
<glyph unicode="&#xbb;" horiz-adv-x="1067" d="M63 276l250 408v12l-250 408l177 104l305 -518l-305 -520zM518 272l252 412v12l-252 412l176 104l307 -522l-307 -522z" />
<glyph unicode="&#xbc;" horiz-adv-x="1951" d="M74 1251l286 197l168 -12v-662h179v-164h-570v164h205v477h-8l-166 -131zM532 -18l422 823l322 696h215l-389 -790l-350 -729h-220zM1198 162v117q0 18 4 30l203 547l166 -18l-193 -521l205 7l25 301h151v-301l82 2v-164h-82v-162h-180l2 162h-383z" />
<glyph unicode="&#xbd;" horiz-adv-x="1980" d="M74 1251l286 197l168 -12v-662h179v-164h-570v164h205v477h-8l-166 -131zM535 -18l419 823l322 696h217l-391 -790l-348 -729h-219zM1270 743q47 33 134 65t185.5 32t171 -60.5t72.5 -161.5q0 -145 -254 -425l-29 -33v-8l303 12v-164h-561v129q131 143 209 238 q150 174 150 240.5t-66 66.5q-104 0 -246 -82z" />
<glyph unicode="&#xbe;" horiz-adv-x="1853" d="M80 657l47 152q143 -51 216 -51t92.5 23.5t19.5 82t-32 81t-110 22.5h-106v143q152 10 190.5 26.5t38.5 65.5t-14 64q-20 20 -123 20q-90 -4 -160 -14l-16 155q127 23 219 23q281 0 281 -223q0 -111 -78 -158q-12 -6 -33 -14v-8q135 -37 135 -191q0 -119 -64.5 -190.5 t-209.5 -71.5q-127 0 -254 49zM444 -18l422 823l322 696h215l-389 -790l-350 -729h-220zM1100 162v117q0 18 4 30l201 547l168 -18l-193 -521l203 7l26 301h152v-301l82 2v-164h-82v-162h-182l4 162h-383z" />
<glyph unicode="&#xbf;" horiz-adv-x="985" d="M45 129q0 172 121 287q57 55 130 106t103.5 78t58 79t31.5 118h211v-21q0 -106 -38.5 -189t-99 -132t-122.5 -93q-147 -102 -147 -241q0 -98 65 -141q37 -25 115 -25t173 24.5t212 75.5q27 -53 80 -186q-25 -14 -66 -35.5t-158.5 -56.5t-219.5 -35q-197 0 -323 108.5 t-126 278.5zM453 975v223h282v-223h-282z" />
<glyph unicode="&#xc0;" d="M-6 0l407 1432h291l406 -1432h-248l-90 352h-426l-92 -352h-248zM262 1634l53 181l529 -158l-37 -135zM379 553h336l-162 668h-12z" />
<glyph unicode="&#xc1;" d="M-6 0l407 1432h291l406 -1432h-248l-90 352h-426l-92 -352h-248zM283 1655l524 162l57 -183l-542 -114zM379 553h336l-162 668h-12z" />
<glyph unicode="&#xc2;" d="M-6 0l407 1432h291l406 -1432h-248l-90 352h-426l-92 -352h-248zM197 1610l288 200h125l291 -200l-61 -99l-285 123h-14q-17 -8 -283 -123zM379 553h336l-162 668h-12z" />
<glyph unicode="&#xc3;" d="M-6 0l407 1432h291l406 -1432h-248l-90 352h-426l-92 -352h-248zM168 1552q0 230 170 230q59 0 225 -46t180 -46q27 0 60 86l129 -19q-2 -229 -168 -229q-59 0 -226 48t-181.5 48t-30 -21.5t-31.5 -66.5zM379 553h336l-162 668h-12z" />
<glyph unicode="&#xc4;" d="M-6 0l407 1432h291l406 -1432h-248l-90 352h-426l-92 -352h-248zM211 1565v190h246v-190h-246zM379 553h336l-162 668h-12zM647 1565v190h246v-190h-246z" />
<glyph unicode="&#xc5;" d="M-6 0l407 1432h291l406 -1432h-248l-90 352h-426l-92 -352h-248zM356 1669q0 96 55.5 138t138.5 42t137 -42t54 -138t-55 -138t-137 -42t-137.5 42t-55.5 138zM379 553h336l-162 668h-12zM475 1669q0 -41 17.5 -55.5t57.5 -14.5t55.5 13.5t15.5 55.5t-15.5 55.5 t-55.5 13.5t-57.5 -13.5t-17.5 -54.5z" />
<glyph unicode="&#xc6;" horiz-adv-x="1654" d="M-14 0l630 1432h914v-211l-537 6l-8 -400h496v-202h-496l8 -420l537 4v-209h-772v350h-375l-150 -350h-247zM444 553h314v659h-37z" />
<glyph unicode="&#xc7;" horiz-adv-x="1236" d="M131 700q0 518 229 672q74 49 154 67.5t236.5 18.5t324.5 -41l-26 -200q-193 29 -356 28.5t-208 -47.5q-100 -104 -100 -504q0 -186 35 -310t83 -166t141 -42t195.5 28.5t221.5 84.5l74 -183q-127 -86 -318 -118q20 -82 21 -140q0 -98 -63.5 -156.5t-170.5 -58.5 q-59 0 -162 19v155q90 -10 143.5 -10t74 12.5t20.5 59.5t-14 104q-535 0 -535 727z" />
<glyph unicode="&#xc8;" horiz-adv-x="1095" d="M199 0v1432h774v-211l-535 6l-10 -400h494v-202h-494l10 -420l535 4v-209h-774zM279 1634l53 181l530 -158l-39 -135z" />
<glyph unicode="&#xc9;" horiz-adv-x="1095" d="M199 0v1432h774v-211l-535 6l-10 -400h494v-202h-494l10 -420l535 4v-209h-774zM301 1655l524 162l58 -183l-543 -114z" />
<glyph unicode="&#xca;" horiz-adv-x="1095" d="M199 0v1432h774v-211l-535 6l-10 -400h494v-202h-494l10 -420l535 4v-209h-774zM227 1610l291 200h125l289 -200l-62 -99l-282 123h-15l-284 -123z" />
<glyph unicode="&#xcb;" horiz-adv-x="1095" d="M199 0v1432h774v-211l-535 6l-10 -400h494v-202h-494l10 -420l535 4v-209h-774zM250 1565v190h248v-190h-248zM686 1565v190h246v-190h-246z" />
<glyph unicode="&#xcc;" horiz-adv-x="641" d="M-6 1632l53 183l502 -158l-39 -135zM199 -2l8 659l-8 775h241l-8 -635l8 -797z" />
<glyph unicode="&#xcd;" horiz-adv-x="641" d="M92 1657l498 160l57 -185l-518 -112zM199 -2l8 659l-8 775h241l-8 -635l8 -797z" />
<glyph unicode="&#xce;" horiz-adv-x="641" d="M-8 1622l266 188h125l264 -188l-59 -104l-260 116h-15l-262 -116zM199 -2l8 659l-8 775h241l-8 -635l8 -797z" />
<glyph unicode="&#xcf;" horiz-adv-x="641" d="M6 1565v190h244v-190h-244zM199 -2l8 659l-8 775h241l-8 -635l8 -797zM391 1565v190h244v-190h-244z" />
<glyph unicode="&#xd0;" horiz-adv-x="1366" d="M90 637v186h135v609q305 27 450.5 26.5t244 -40.5t158 -104.5t93.5 -160.5q63 -168 64 -420q0 -760 -567 -760q-96 0 -443 27v637h-135zM463 195q111 -14 199 -15q158 0 208 47q104 100 104.5 504t-100.5 481q-43 39 -180 39l-231 -14v-414h233v-186h-233v-442z" />
<glyph unicode="&#xd1;" horiz-adv-x="1431" d="M199 0v1432h313l514 -1156h10l-28 1156h227v-1432h-313l-512 1153h-11l27 -1153h-227zM340 1552q2 230 172 230q59 0 224 -46t179 -46q27 0 60 86l129 -19q-2 -229 -168 -229q-59 0 -226 48t-180.5 48t-29 -21.5t-31.5 -66.5z" />
<glyph unicode="&#xd2;" horiz-adv-x="1394" d="M131 719q0 436 168 596q82 78 177 110.5t220 32.5t220.5 -32.5t177.5 -110.5q168 -160 168 -596q0 -498 -234 -658q-131 -88 -332 -88q-98 0 -178 19.5t-153.5 70t-122.5 132.5q-111 178 -111 524zM383 730q0 -155 12.5 -249t35 -152.5t63.5 -89t87 -42t140 -11.5t156 35 q135 76 135 492q0 172 -16.5 276.5t-58.5 161.5t-96.5 75.5t-144.5 18.5t-143 -18.5t-95 -75.5t-58.5 -161.5t-16.5 -259.5zM426 1634l53 181l531 -158l-39 -135z" />
<glyph unicode="&#xd3;" horiz-adv-x="1394" d="M131 719q0 436 168 596q82 78 177 110.5t220 32.5t220.5 -32.5t177.5 -110.5q168 -160 168 -596q0 -498 -234 -658q-131 -88 -332 -88q-98 0 -178 19.5t-153.5 70t-122.5 132.5q-111 178 -111 524zM383 730q0 -155 12.5 -249t35 -152.5t63.5 -89t87 -42t140 -11.5t156 35 q135 76 135 492q0 172 -16.5 276.5t-58.5 161.5t-96.5 75.5t-144.5 18.5t-143 -18.5t-95 -75.5t-58.5 -161.5t-16.5 -259.5zM446 1655l525 162l57 -183l-543 -114z" />
<glyph unicode="&#xd4;" horiz-adv-x="1394" d="M131 719q0 436 168 596q82 78 177 110.5t220 32.5t220.5 -32.5t177.5 -110.5q168 -160 168 -596q0 -498 -234 -658q-131 -88 -332 -88q-98 0 -178 19.5t-153.5 70t-122.5 132.5q-111 178 -111 524zM350 1610l291 200h125l291 -200l-62 -99l-284 123h-15l-282 -123z M383 730q0 -155 12.5 -249t35 -152.5t63.5 -89t87 -42t140 -11.5t156 35q135 76 135 492q0 172 -16.5 276.5t-58.5 161.5t-96.5 75.5t-144.5 18.5t-143 -18.5t-95 -75.5t-58.5 -161.5t-16.5 -259.5z" />
<glyph unicode="&#xd5;" horiz-adv-x="1394" d="M131 719q0 436 168 596q82 78 177 110.5t220 32.5t220.5 -32.5t177.5 -110.5q168 -160 168 -596q0 -498 -234 -658q-131 -88 -332 -88q-98 0 -178 19.5t-153.5 70t-122.5 132.5q-111 178 -111 524zM315 1552q2 230 172 230q61 0 225.5 -46t180.5 -46q27 0 59 86l129 -19 q-2 -229 -168 -229q-59 0 -226 48t-181 48t-29.5 -21.5t-32.5 -66.5zM383 730q0 -155 12.5 -249t35 -152.5t63.5 -89t87 -42t140 -11.5t156 35q135 76 135 492q0 172 -16.5 276.5t-58.5 161.5t-96.5 75.5t-144.5 18.5t-143 -18.5t-95 -75.5t-58.5 -161.5t-16.5 -259.5z" />
<glyph unicode="&#xd6;" horiz-adv-x="1394" d="M131 719q0 436 168 596q82 78 177 110.5t220 32.5t220.5 -32.5t177.5 -110.5q168 -160 168 -596q0 -498 -234 -658q-131 -88 -332 -88q-98 0 -178 19.5t-153.5 70t-122.5 132.5q-111 178 -111 524zM360 1565v190h248v-190h-248zM383 730q0 -155 12.5 -249t35 -152.5 t63.5 -89t87 -42t140 -11.5t156 35q135 76 135 492q0 172 -16.5 276.5t-58.5 161.5t-96.5 75.5t-144.5 18.5t-143 -18.5t-95 -75.5t-58.5 -161.5t-16.5 -259.5zM797 1565v190h245v-190h-245z" />
<glyph unicode="&#xd7;" horiz-adv-x="1202" d="M96 244l361 360l-359 359l142 143l358 -361l365 365l143 -145l-363 -363l359 -358l-141 -144l-359 359l-362 -361z" />
<glyph unicode="&#xd8;" horiz-adv-x="1394" d="M131 716.5q0 438.5 168 598.5q82 78 177 110.5t223 32.5t231 -41l33 76h196l-80 -168q182 -172 183 -606q0 -498 -234 -658q-131 -88 -332 -88q-133 0 -229 37l-41 -90h-199l88 180q-184 178 -184 616.5zM383 713q0 -258 47 -375l162 332l250 553q-53 23 -158.5 22.5 t-167.5 -37.5q-133 -76 -133 -495zM555 205q61 -18 160.5 -18.5t161.5 34.5q135 76 135 492q0 262 -45 377l-199 -418z" />
<glyph unicode="&#xd9;" horiz-adv-x="1400" d="M199 625v807h239v-752q0 -223 23.5 -326.5t75 -136.5t165 -32t163.5 33t74 134.5t24 327.5v752h239v-789q0 -389 -131 -532q-68 -76 -156 -107t-215 -31q-254 0 -377.5 143.5t-123.5 508.5zM379 1634l53 181l531 -158l-39 -135z" />
<glyph unicode="&#xda;" horiz-adv-x="1400" d="M199 625v807h239v-752q0 -223 23.5 -326.5t75 -136.5t165 -32t163.5 33t74 134.5t24 327.5v752h239v-789q0 -389 -131 -532q-68 -76 -156 -107t-215 -31q-254 0 -377.5 143.5t-123.5 508.5zM444 1655l525 162l57 -183l-545 -114z" />
<glyph unicode="&#xdb;" horiz-adv-x="1400" d="M199 625v807h239v-752q0 -223 23.5 -326.5t75 -136.5t165 -32t163.5 33t74 134.5t24 327.5v752h239v-789q0 -389 -131 -532q-68 -76 -156 -107t-215 -31q-254 0 -377.5 143.5t-123.5 508.5zM348 1610l291 200h125l291 -200l-64 -99l-282 123h-15l-282 -123z" />
<glyph unicode="&#xdc;" horiz-adv-x="1400" d="M199 625v807h239v-752q0 -223 23.5 -326.5t75 -136.5t165 -32t163.5 33t74 134.5t24 327.5v752h239v-789q0 -389 -131 -532q-68 -76 -156 -107t-215 -31q-254 0 -377.5 143.5t-123.5 508.5zM360 1561v192h246v-192h-246zM797 1561v192h245v-192h-245z" />
<glyph unicode="&#xdd;" horiz-adv-x="1120" d="M6 1432h260l281 -711h10l283 711h260l-430 -908l4 -524h-244l6 524zM307 1655l524 162l58 -183l-545 -114z" />
<glyph unicode="&#xde;" horiz-adv-x="1261" d="M195 0l8 702l-8 730h239v-181q176 12 279 13q209 0 321.5 -124t112.5 -366q0 -293 -152 -409q-133 -100 -329 -101l-232 10v-274h-239zM432 487q129 -20 263 -20t169 59.5t35 268.5t-63 247q-37 31 -165 31t-239 -16v-570z" />
<glyph unicode="&#xdf;" horiz-adv-x="1320" d="M199 0v971q0 244 129 365.5t318.5 121.5t321.5 -101.5t132 -285.5q0 -129 -57.5 -203.5t-127.5 -99.5v-12q258 -63 259 -348q0 -211 -121 -323t-310 -112q-74 0 -163 17l24 182q49 -8 138 -8t135.5 55t46.5 188.5t-57.5 194t-190.5 60.5h-47v176q131 10 183 60t52 163 q0 213 -215 213q-111 0 -161 -68.5t-50 -222.5v-983h-239z" />
<glyph unicode="&#xe0;" horiz-adv-x="1204" d="M94 369.5q0 197.5 128 288t370 90.5l196 -3q0 199 -31.5 241t-123.5 42t-206 -22.5t-241 -69.5l-63 174q29 12 77 31.5t179 51.5t239 32q408 0 408 -443v-782h-152l-32 129h-11q-23 -18 -60.5 -44t-141 -69t-187.5 -43q-158 0 -253 99.5t-95 297zM301 1477l66 188 l536 -190l-45 -140zM338 373.5q0 -115.5 29.5 -157.5t96 -42t147.5 23.5t177 68.5v287q-84 12 -227 12t-178 -35q-45 -41 -45 -156.5z" />
<glyph unicode="&#xe1;" horiz-adv-x="1204" d="M94 369.5q0 197.5 128 288t370 90.5l196 -3q0 199 -31.5 241t-123.5 42t-206 -22.5t-241 -69.5l-63 174q29 12 77 31.5t179 51.5t239 32q408 0 408 -443v-782h-152l-32 129h-11q-23 -18 -60.5 -44t-141 -69t-187.5 -43q-158 0 -253 99.5t-95 297zM301 1475l537 190 l65 -188l-557 -142zM338 373.5q0 -115.5 29.5 -157.5t96 -42t147.5 23.5t177 68.5v287q-84 12 -227 12t-178 -35q-45 -41 -45 -156.5z" />
<glyph unicode="&#xe2;" horiz-adv-x="1204" d="M94 369.5q0 197.5 128 288t370 90.5l196 -3q0 199 -31.5 241t-123.5 42t-206 -22.5t-241 -69.5l-63 174q29 12 77 31.5t179 51.5t239 32q408 0 408 -443v-782h-152l-32 129h-11q-23 -18 -60.5 -44t-141 -69t-187.5 -43q-158 0 -253 99.5t-95 297zM240 1427l299 220h125 l301 -220l-72 -102l-285 141h-14l-287 -141zM338 373.5q0 -115.5 29.5 -157.5t96 -42t147.5 23.5t177 68.5v287q-84 12 -227 12t-178 -35q-45 -41 -45 -156.5z" />
<glyph unicode="&#xe3;" horiz-adv-x="1204" d="M94 369.5q0 197.5 128 288t370 90.5l196 -3q0 199 -31.5 241t-123.5 42t-206 -22.5t-241 -69.5l-63 174q29 12 77 31.5t179 51.5t239 32q408 0 408 -443v-782h-152l-32 129h-11q-23 -18 -60.5 -44t-141 -69t-187.5 -43q-158 0 -253 99.5t-95 297zM219 1374q2 236 172 236 q61 0 226 -44t180 -44q27 0 59 86l129 -19q-2 -236 -168 -235q-59 0 -226 46t-181 46q-29 0 -62 -88zM338 373.5q0 -115.5 29.5 -157.5t96 -42t147.5 23.5t177 68.5v287q-84 12 -227 12t-178 -35q-45 -41 -45 -156.5z" />
<glyph unicode="&#xe4;" horiz-adv-x="1204" d="M94 369.5q0 197.5 128 288t370 90.5l196 -3q0 199 -31.5 241t-123.5 42t-206 -22.5t-241 -69.5l-63 174q29 12 77 31.5t179 51.5t239 32q408 0 408 -443v-782h-152l-32 129h-11q-23 -18 -60.5 -44t-141 -69t-187.5 -43q-158 0 -253 99.5t-95 297zM260 1386v191h254v-191 h-254zM338 373.5q0 -115.5 29.5 -157.5t96 -42t147.5 23.5t177 68.5v287q-84 12 -227 12t-178 -35q-45 -41 -45 -156.5zM692 1386v191h252v-191h-252z" />
<glyph unicode="&#xe5;" horiz-adv-x="1204" d="M94 369.5q0 197.5 128 288t370 90.5l196 -3q0 199 -31.5 241t-123.5 42t-206 -22.5t-241 -69.5l-63 174q29 12 77 31.5t179 51.5t239 32q408 0 408 -443v-782h-152l-32 129h-11q-23 -18 -60.5 -44t-141 -69t-187.5 -43q-158 0 -253 99.5t-95 297zM338 373.5 q0 -115.5 29.5 -157.5t96 -42t147.5 23.5t177 68.5v287q-84 12 -227 12t-178 -35q-45 -41 -45 -156.5zM385 1497q0 184 191.5 184t191.5 -184q0 -98 -54.5 -140t-136 -42t-137 42t-55.5 140zM500 1498q0 -44 18.5 -60.5t58 -16.5t57 16.5t17.5 60.5t-16.5 59.5t-58 15.5 t-59 -15.5t-17.5 -59.5z" />
<glyph unicode="&#xe6;" horiz-adv-x="1882" d="M117 364.5q0 192.5 132 276.5t374 84h188q0 213 -30.5 258t-126 45t-206 -22.5t-239.5 -69.5l-64 176q90 41 231.5 77t246.5 36q231 0 333 -131h9q123 131 348 131t337.5 -128t112.5 -425v-144h-710q0 -246 63 -307q35 -35 71 -44t102.5 -9t163.5 20.5t224 63.5l60 -180 q-86 -39 -206 -69t-218 -30q-270 0 -391 172h-9q-96 -78 -227 -125t-225 -47q-158 0 -251 99.5t-93 292zM360 368.5q0 -110.5 35 -152.5t105 -42q127 0 266 68l45 22v268q-78 12 -219 12.5t-186.5 -32.5t-45.5 -143.5zM1053 707l469 8q0 225 -43 264q-58 51 -162 51 q-162 0 -211 -71.5t-53 -251.5z" />
<glyph unicode="&#xe7;" horiz-adv-x="1093" d="M127 602q0 356 164 498q147 125 389 125q160 0 315 -39l-26 -187q-223 29 -342 29t-168 -49q-86 -92 -86 -393t116 -387q43 -31 112 -31t157 24.5t198 71.5l70 -174q-92 -68 -240 -100q23 -86 23 -142q0 -98 -63.5 -156.5t-170.5 -58.5q-61 0 -163 19v155q92 -10 144 -10 t73.5 12.5t21.5 59.5t-14 104q-236 0 -373 151.5t-137 477.5z" />
<glyph unicode="&#xe8;" horiz-adv-x="1206" d="M127 599q0 626 508 626q227 0 341 -131t114 -435v-147h-715q0 -227 78 -299q51 -45 137 -45q166 0 350 61l64 23l57 -180q-201 -99 -422 -99q-512 0 -512 626zM303 1477l66 188l536 -190l-45 -140zM377 690l471 10v62q0 12 -2 54t-4 51.5t-7.5 41t-12.5 38.5t-18 27.5 t-25.5 26t-33.5 15.5q-29 14 -109.5 14t-132.5 -18.5t-80 -65.5t-36 -102.5t-10 -153.5z" />
<glyph unicode="&#xe9;" horiz-adv-x="1206" d="M127 599q0 626 508 626q227 0 341 -131t114 -435v-147h-715q0 -227 78 -299q51 -45 137 -45q166 0 350 61l64 23l57 -180q-201 -99 -422 -99q-512 0 -512 626zM303 1475l537 190l65 -188l-557 -142zM377 690l471 10v62q0 12 -2 54t-4 51.5t-7.5 41t-12.5 38.5t-18 27.5 t-25.5 26t-33.5 15.5q-29 14 -109.5 14t-132.5 -18.5t-80 -65.5t-36 -102.5t-10 -153.5z" />
<glyph unicode="&#xea;" horiz-adv-x="1206" d="M127 599q0 626 508 626q227 0 341 -131t114 -435v-147h-715q0 -227 78 -299q51 -45 137 -45q166 0 350 61l64 23l57 -180q-201 -99 -422 -99q-512 0 -512 626zM240 1427l299 220h125l301 -220l-72 -102l-285 141h-14l-287 -141zM377 690l471 10v62q0 12 -2 54t-4 51.5 t-7.5 41t-12.5 38.5t-18 27.5t-25.5 26t-33.5 15.5q-29 14 -109.5 14t-132.5 -18.5t-80 -65.5t-36 -102.5t-10 -153.5z" />
<glyph unicode="&#xeb;" horiz-adv-x="1206" d="M127 599q0 626 508 626q227 0 341 -131t114 -435v-147h-715q0 -227 78 -299q51 -45 137 -45q166 0 350 61l64 23l57 -180q-201 -99 -422 -99q-512 0 -512 626zM260 1386v191h254v-191h-254zM377 690l471 10v62q0 12 -2 54t-4 51.5t-7.5 41t-12.5 38.5t-18 27.5t-25.5 26 t-33.5 15.5q-29 14 -109.5 14t-132.5 -18.5t-80 -65.5t-36 -102.5t-10 -153.5zM692 1386v191h252v-191h-252z" />
<glyph unicode="&#xec;" horiz-adv-x="634" d="M-18 1475l65 190l516 -190l-45 -140zM199 0v1198h237v-1198h-237z" />
<glyph unicode="&#xed;" horiz-adv-x="634" d="M45 1475l516 190l66 -190l-537 -140zM199 0v1198h237v-1198h-237z" />
<glyph unicode="&#xee;" horiz-adv-x="634" d="M-27 1434l281 213h125l283 -213l-72 -105l-266 137h-15l-268 -137zM199 0v1198h237v-1198h-237z" />
<glyph unicode="&#xef;" horiz-adv-x="634" d="M2 1386v191h248v-191h-248zM199 0v1198h237v-1198h-237zM385 1386v191h246v-191h-246z" />
<glyph unicode="&#xf0;" horiz-adv-x="1234" d="M133 545q0 240 110.5 381t352.5 141q158 0 281 -84l10 6q-43 131 -166 254l-227 -110l-17 161l125 58l-127 94l123 131q106 -57 197 -129l211 113l14 -166l-117 -62q186 -217 197 -663q0 -78 -2 -115q-10 -285 -122 -433.5t-362 -148.5q-481 0 -481 572zM373 527 q0 -212 51 -288.5t193.5 -76.5t191.5 76.5t49 288.5t-51 281t-189.5 69t-191.5 -69t-53 -281z" />
<glyph unicode="&#xf1;" horiz-adv-x="1269" d="M190 0v1198h156l27 -119h10q252 145 425 145.5t235.5 -112.5t62.5 -321v-791h-238v731q0 182 -23.5 230.5t-103 48.5t-171 -33t-142.5 -66v-911h-238zM252 1374q2 236 172 236q59 0 225 -44t180 -44q27 0 60 86l129 -19q-2 -236 -168 -235q-59 0 -226 46t-182 46 q-29 0 -61 -88z" />
<glyph unicode="&#xf2;" horiz-adv-x="1224" d="M127 598q0 307 111.5 467t375 160t374 -160t110.5 -467t-110.5 -466t-374 -159t-375 159t-111.5 466zM311 1477l66 188l536 -190l-45 -140zM373 599q0 -267 50 -352t191.5 -85t190.5 85t49 352t-49 351t-190.5 84t-191.5 -84t-50 -351z" />
<glyph unicode="&#xf3;" horiz-adv-x="1224" d="M127 598q0 307 111.5 467t375 160t374 -160t110.5 -467t-110.5 -466t-374 -159t-375 159t-111.5 466zM311 1475l537 190l65 -188l-557 -142zM373 599q0 -267 50 -352t191.5 -85t190.5 85t49 352t-49 351t-190.5 84t-191.5 -84t-50 -351z" />
<glyph unicode="&#xf4;" horiz-adv-x="1224" d="M127 598q0 307 111.5 467t375 160t374 -160t110.5 -467t-110.5 -466t-374 -159t-375 159t-111.5 466zM250 1427l299 220h125l301 -220l-72 -102l-285 141h-14l-287 -141zM373 599q0 -267 50 -352t191.5 -85t190.5 85t49 352t-49 351t-190.5 84t-191.5 -84t-50 -351z" />
<glyph unicode="&#xf5;" horiz-adv-x="1224" d="M127 598q0 307 111.5 467t375 160t374 -160t110.5 -467t-110.5 -466t-374 -159t-375 159t-111.5 466zM229 1374q2 236 172 236q61 0 225.5 -44t180.5 -44q27 0 59 86l129 -19q-2 -236 -168 -235q-59 0 -226 46t-181 46q-29 0 -62 -88zM373 599q0 -267 50 -352t191.5 -85 t190.5 85t49 352t-49 351t-190.5 84t-191.5 -84t-50 -351z" />
<glyph unicode="&#xf6;" horiz-adv-x="1224" d="M127 598q0 307 111.5 467t375 160t374 -160t110.5 -467t-110.5 -466t-374 -159t-375 159t-111.5 466zM270 1386v191h254v-191h-254zM373 599q0 -267 50 -352t191.5 -85t190.5 85t49 352t-49 351t-190.5 84t-191.5 -84t-50 -351zM702 1386v191h252v-191h-252z" />
<glyph unicode="&#xf7;" horiz-adv-x="1302" d="M90 498v202h1122v-202h-1122zM508 57v224h285v-224h-285zM508 920v225h285v-225h-285z" />
<glyph unicode="&#xf8;" horiz-adv-x="1226" d="M129 576q0 329 111.5 489t373.5 160q100 0 174 -25l39 84h183l-78 -160q166 -145 166 -526q0 -307 -110.5 -466t-373.5 -159q-117 0 -206 39l-41 -90h-183l86 178q-141 147 -141 476zM375 604q0 -178 14 -264l156 324l164 360q-33 10 -111 10t-127 -32.5t-72.5 -126 t-23.5 -271.5zM489 186q37 -24 125 -24q141 0 189.5 84t48.5 321.5t-33 327.5z" />
<glyph unicode="&#xf9;" horiz-adv-x="1267" d="M164 408v790h237v-743q0 -197 27 -236q29 -35 104 -35q123 0 308 99v915h237v-1198h-155l-29 119h-10q-2 -2 -46 -26.5t-61.5 -33t-62.5 -30t-76 -29.5q-86 -27 -156 -27q-317 1 -317 435zM332 1477l65 188l537 -190l-45 -140z" />
<glyph unicode="&#xfa;" horiz-adv-x="1267" d="M164 408v790h237v-743q0 -197 27 -236q29 -35 104 -35q123 0 308 99v915h237v-1198h-155l-29 119h-10q-2 -2 -46 -26.5t-61.5 -33t-62.5 -30t-76 -29.5q-86 -27 -156 -27q-317 1 -317 435zM334 1475l536 190l66 -188l-557 -142z" />
<glyph unicode="&#xfb;" horiz-adv-x="1267" d="M164 408v790h237v-743q0 -197 27 -236q29 -35 104 -35q123 0 308 99v915h237v-1198h-155l-29 119h-10q-2 -2 -46 -26.5t-61.5 -33t-62.5 -30t-76 -29.5q-86 -27 -156 -27q-317 1 -317 435zM270 1427l299 220h125l301 -220l-71 -102l-285 141h-14l-287 -141z" />
<glyph unicode="&#xfc;" horiz-adv-x="1267" d="M164 408v790h237v-743q0 -197 27 -236q29 -35 104 -35q123 0 308 99v915h237v-1198h-155l-29 119h-10q-2 -2 -46 -26.5t-61.5 -33t-62.5 -30t-76 -29.5q-86 -27 -156 -27q-317 1 -317 435zM291 1386v191h254v-191h-254zM723 1386v191h252v-191h-252z" />
<glyph unicode="&#xfd;" horiz-adv-x="1021" d="M-10 1198h264l254 -844h10l250 844h250l-420 -1128l-113 -410h-245l168 451zM211 1475l537 190l65 -188l-557 -142z" />
<glyph unicode="&#xfe;" horiz-adv-x="1255" d="M197 -340v1890h235v-364q174 39 287 39q203 0 305 -148.5t102 -468.5q0 -635 -454 -635q-72 0 -240 27v-340h-235zM432 199q158 -29 244 -29t121 31q86 72 86 426q0 213 -13.5 261t-17.5 68.5t-18.5 34t-20.5 20.5t-25.5 10t-27.5 4t-33 0t-59 -1q-88 0 -236 -41v-784z " />
<glyph unicode="&#xff;" horiz-adv-x="1021" d="M-10 1198h264l254 -844h10l250 844h250l-420 -1128l-113 -410h-245l168 451zM170 1386v191h254v-191h-254zM602 1386v191h252v-191h-252z" />
<glyph unicode="&#x127;" horiz-adv-x="1267" d="M16 1315v164h166v71h238v-71h368v-164h-368v-193q227 104 387 104.5t228.5 -109t68.5 -326.5v-791h-238v733q0 174 -28.5 227.5t-114.5 53.5q-53 0 -129 -19.5t-174 -60.5v-934h-238v1315h-166z" />
<glyph unicode="&#x128;" horiz-adv-x="641" d="M-14 1552q1 230 159 230q55 0 182.5 -45t141.5 -45t28.5 20.5t28.5 63.5l129 -19q-2 -229 -157 -229q-55 0 -183.5 47t-142.5 47q-25 0 -57 -86zM199 -2l8 659l-8 775h241l-8 -635l8 -797z" />
<glyph unicode="&#x129;" horiz-adv-x="634" d="M-43 1374q2 236 149 236q53 0 199 -42t158 -42q25 0 45 82l133 -19q-2 -236 -145 -235q-53 0 -199.5 44t-159.5 44q-23 0 -47 -84zM199 0v1198h237v-1198h-237z" />
<glyph unicode="&#x131;" horiz-adv-x="634" d="M199 0v1198h237v-1198h-237z" />
<glyph unicode="&#x132;" horiz-adv-x="1302" d="M199 -2l8 659l-8 775h241l-8 -635l8 -797zM575 -8l27 203q72 -16 136.5 -16.5t84.5 18.5q51 39 51 280v955h238v-938q0 -520 -373 -521q-68 0 -164 19z" />
<glyph unicode="&#x133;" horiz-adv-x="1251" d="M180 1358v192h277v-192h-277zM203 0v1198h235v-1198h-235zM530 -350l25 198q80 -12 150.5 -12t90 48t19.5 239v1069h236v-1067q0 -489 -361 -490zM795 1358v192h276v-192h-276z" />
<glyph unicode="&#x134;" horiz-adv-x="677" d="M-27 -8l27 203q72 -16 136.5 -16.5t84.5 18.5q51 39 51 280v955h238v-938q0 -520 -373 -521q-68 0 -164 19zM59 1622l267 188h125l264 -188l-60 -104l-260 116h-14l-262 -116z" />
<glyph unicode="&#x135;" horiz-adv-x="669" d="M-51 -350l26 198q80 -12 150 -12t90.5 48t20.5 239v1075h235v-1073q0 -260 -98.5 -375t-255.5 -115zM-4 1434l285 213h125l286 -213l-71 -105l-271 137h-14l-273 -137z" />
<glyph unicode="&#x137;" horiz-adv-x="1169" d="M168 0l10 657l-10 885h238v-1542h-238zM408 643l475 549h284l-505 -539v-10l542 -643h-286zM418 -459q43 37 60.5 81t17.5 120v145h215v-20q0 -291 -207 -402z" />
<glyph unicode="&#x138;" horiz-adv-x="1169" d="M190 0v1192h164l54 -156v-1036h-218zM408 643l475 549h284l-505 -539v-10l542 -643h-286z" />
<glyph unicode="&#x13f;" horiz-adv-x="956" d="M199 0v1432h239l-10 -1223l522 4v-213h-751zM614 698v222h267v-222h-267z" />
<glyph unicode="&#x140;" horiz-adv-x="858" d="M168 0v1550h235v-1550h-235zM561 721v229h260v-229h-260z" />
<glyph unicode="&#x141;" horiz-adv-x="950" d="M63 434v193l136 84v721h239l-6 -578l320 205v-195l-320 -205l-4 -450l522 4v-213h-751v518z" />
<glyph unicode="&#x142;" horiz-adv-x="667" d="M43 528v195l178 111v716h236v-567l168 107v-199l-168 -105v-786h-236v639z" />
<glyph unicode="&#x143;" horiz-adv-x="1431" d="M199 0v1432h313l514 -1156h10l-28 1156h227v-1432h-313l-512 1153h-11l27 -1153h-227zM492 1655l524 162l57 -183l-543 -114z" />
<glyph unicode="&#x144;" horiz-adv-x="1269" d="M190 0v1198h156l27 -119h10q252 145 425 145.5t235.5 -112.5t62.5 -321v-791h-238v731q0 182 -23.5 230.5t-103 48.5t-171 -33t-142.5 -66v-911h-238zM362 1475l537 190l66 -188l-557 -142z" />
<glyph unicode="&#x152;" horiz-adv-x="1927" d="M131 719q0 436 168 596q82 78 177 110.5t220 32.5q197 0 326 -108h8v82h774v-211l-536 6l-8 -400h493v-202h-493l8 -420l536 4v-209h-774v84h-8q-133 -111 -326 -111q-319 0 -454 222q-111 178 -111 524zM383 730q0 -155 12.5 -249t35 -152.5t63.5 -89t87 -42t140 -11.5 t156 35q135 76 135 492q0 172 -16.5 276.5t-58.5 161.5t-96.5 75.5t-144.5 18.5t-143 -18.5t-95 -75.5t-58.5 -161.5t-16.5 -259.5z" />
<glyph unicode="&#x153;" horiz-adv-x="1935" d="M127 598q0 307 111.5 467t369.5 160t375 -162h8q123 162 361.5 162t352.5 -131t114 -435v-147h-715q0 -227 78 -299q51 -45 137 -45q166 0 350 61l64 23l57 -180q-201 -98 -437.5 -98.5t-361.5 159.5h-8q-119 -160 -376 -160t-368.5 159t-111.5 466zM373 599 q0 -267 50 -352t191.5 -85t190.5 85t49 352t-49 351t-190.5 84t-191.5 -84t-50 -351zM1106 690l471 10q-2 193 -23 244q-41 86 -182 86q-88 0 -140 -18.5t-80 -65.5t-36 -102.5t-10 -153.5z" />
<glyph unicode="&#x154;" horiz-adv-x="1366" d="M199 0l10 672l-6 758q229 28 493 28q494 0 494 -461q0 -340 -299 -424v-10l334 -563h-281l-278 541l-226 8v-549h-241zM401 1649l521 178l61 -178l-541 -133zM438 754q162 -18 284 -18.5t170 60t48 217t-49 212.5q-43 45 -177 45t-274 -19z" />
<glyph unicode="&#x156;" horiz-adv-x="1366" d="M199 0l10 672l-6 758q229 28 493 28q494 0 494 -461q0 -340 -299 -424v-10l334 -563h-281l-278 541l-226 8v-549h-241zM438 754q162 -18 284 -18.5t170 60t48 217t-49 212.5q-43 45 -177 45t-274 -19zM473 -459q43 37 60.5 81t17.5 120v145h215v-20q0 -291 -207 -402z " />
<glyph unicode="&#x157;" horiz-adv-x="851" d="M123 -459q43 37 60.5 81t17.5 120v145h215v-20q0 -291 -207 -402zM190 0v1198h150l31 -125h12q74 59 171 105.5t156.5 46.5t108.5 -17l-18 -213q-51 4 -92 4q-154 0 -281 -90v-909h-238z" />
<glyph unicode="&#x158;" horiz-adv-x="1366" d="M199 0l10 672l-6 758q229 28 493 28q494 0 494 -461q0 -340 -299 -424v-10l334 -563h-281l-278 541l-226 8v-549h-241zM311 1735l64 98l282 -123h15l282 123l64 -98l-291 -199h-125zM438 754q162 -18 284 -18.5t170 60t48 217t-49 212.5q-43 45 -177 45t-274 -19z" />
<glyph unicode="&#x159;" horiz-adv-x="851" d="M127 1573l63 94l283 -139h14l283 139l64 -94l-291 -219h-125zM190 0v1198h150q18 -96 31 -125h12q74 59 171 105.5t156.5 46.5t108.5 -17l-18 -213q-51 4 -92 4q-154 0 -281 -90v-909h-238z" />
<glyph unicode="&#x237;" horiz-adv-x="669" d="M-51 -350l26 198q80 -12 150 -12t90.5 48t20.5 239v1075h235v-1073q0 -260 -98.5 -375t-255.5 -115z" />
<glyph unicode="&#x2c6;" horiz-adv-x="1118" d="M199 1427l299 220h125l301 -220l-72 -102l-285 141h-14l-287 -141z" />
<glyph unicode="&#x2c7;" horiz-adv-x="542" d="M-80 1573l64 94l282 -139h15l282 139l64 -94l-291 -219h-125z" />
<glyph unicode="&#x2da;" horiz-adv-x="475" d="M45 1497q0 184 191.5 184t191.5 -184q0 -98 -54.5 -140t-136 -42t-137 42t-55.5 140zM160 1498q0 -44 18.5 -60.5t58 -16.5t57 16.5t17.5 60.5t-16 59.5t-58 15.5t-59.5 -15.5t-17.5 -59.5z" />
<glyph unicode="&#x2dc;" horiz-adv-x="1122" d="M178 1374q2 236 172 236q59 0 225 -44t181 -44q27 0 59 86l129 -19q-2 -236 -168 -235q-59 0 -226 46t-181 46q-29 0 -62 -88z" />
<glyph unicode="&#x307;" horiz-adv-x="651" d="M203 1384v193h246v-193h-246z" />
<glyph unicode="&#x3bc;" horiz-adv-x="1269" d="M164 -340v1538h237v-721q0 -215 27 -254q33 -39 107.5 -39t165 34t139.5 65v915h237v-1198h-153l-29 119h-12q-256 -145 -391 -146q-70 0 -119 27l-8 -8l20 -332h-221z" />
<glyph unicode="&#x2000;" horiz-adv-x="924" />
<glyph unicode="&#x2001;" horiz-adv-x="1849" />
<glyph unicode="&#x2002;" horiz-adv-x="924" />
<glyph unicode="&#x2003;" horiz-adv-x="1849" />
<glyph unicode="&#x2004;" horiz-adv-x="616" />
<glyph unicode="&#x2005;" horiz-adv-x="462" />
<glyph unicode="&#x2006;" horiz-adv-x="308" />
<glyph unicode="&#x2007;" horiz-adv-x="308" />
<glyph unicode="&#x2008;" horiz-adv-x="231" />
<glyph unicode="&#x2009;" horiz-adv-x="369" />
<glyph unicode="&#x200a;" horiz-adv-x="102" />
<glyph unicode="&#x2010;" horiz-adv-x="653" d="M78 569v201h497v-201h-497z" />
<glyph unicode="&#x2011;" horiz-adv-x="653" d="M78 569v201h497v-201h-497z" />
<glyph unicode="&#x2012;" horiz-adv-x="653" d="M78 569v201h497v-201h-497z" />
<glyph unicode="&#x2013;" horiz-adv-x="1206" d="M86 569l2 201h1032v-201h-1034z" />
<glyph unicode="&#x2014;" horiz-adv-x="1687" d="M127 569v201h1434v-201h-1434z" />
<glyph unicode="&#x2018;" horiz-adv-x="481" d="M113 1096q0 268 147 411l115 -77q-57 -92 -58 -234l13 -244h-209q-8 58 -8 144z" />
<glyph unicode="&#x2019;" horiz-adv-x="481" d="M113 1001q57 90 57 232l-14 246h211q8 -78 8 -146q0 -268 -148 -411z" />
<glyph unicode="&#x201a;" horiz-adv-x="528" d="M115 -205q57 88 57 232l-12 245h207q10 -72 10 -145q-3 -273 -148 -410z" />
<glyph unicode="&#x201c;" horiz-adv-x="841" d="M106 1096q0 272 148 415l115 -77q-57 -92 -58 -238l13 -244h-209q-9 58 -9 144zM473 1094q2 250 152 399l110 -72q-55 -86 -55 -227l12 -242h-211q-8 57 -8 142z" />
<glyph unicode="&#x201d;" horiz-adv-x="841" d="M106 1010q55 82 56 227l-12 242h210q9 -58 9 -142q0 -250 -152 -401zM475 997q57 90 57 236l-14 246h211q8 -78 8 -146q0 -272 -147 -415z" />
<glyph unicode="&#x201e;" horiz-adv-x="919" d="M111 -207q57 84 57 230l-12 247h206q10 -72 11 -145q-3 -275 -148 -408zM481 -209q57 84 58 229l-13 250h207q8 -57 8 -147q0 -276 -145 -410z" />
<glyph unicode="&#x2022;" horiz-adv-x="802" d="M127 878.5q0 143.5 79 209t195.5 65.5t195.5 -66.5t79 -209t-79 -211t-194.5 -68.5t-195.5 68.5t-80 212z" />
<glyph unicode="&#x202f;" horiz-adv-x="369" />
<glyph unicode="&#x2039;" horiz-adv-x="614" d="M66 690l307 518l178 -106l-252 -406v-12l252 -405l-178 -109z" />
<glyph unicode="&#x203a;" horiz-adv-x="614" d="M63 279l252 405v12l-252 406l181 106l305 -518l-305 -520z" />
<glyph unicode="&#x205f;" horiz-adv-x="462" />
<glyph unicode="&#x20ac;" horiz-adv-x="1249" d="M78 496v166h962v-166h-579q23 -193 80 -256.5t161.5 -63.5t206 22.5t209.5 67.5l68 -178q-20 -12 -58 -31.5t-156 -51.5t-241 -32q-453 0 -522 523h-131zM78 784v166h133q41 287 180 397.5t360.5 110.5t385.5 -41l-25 -198q-258 27 -354 26q-170 0 -222.5 -52t-74.5 -243 h579v-166h-962z" />
<glyph unicode="&#xe000;" horiz-adv-x="1198" d="M0 0v1198h1198v-1198h-1198z" />
<glyph horiz-adv-x="565" />
<glyph horiz-adv-x="530" d="M100 -174q43 37 60.5 81t17.5 120v145h215v-20q0 -291 -207 -402z" />
<glyph horiz-adv-x="950" d="M127 1565v190h246v-190h-246zM563 1565v190h246v-190h-246z" />
<glyph horiz-adv-x="768" d="M264 1546v195h246v-195h-246z" />
<glyph horiz-adv-x="976" d="M233 1634l54 181l530 -158l-39 -135z" />
<glyph horiz-adv-x="995" d="M309 1655l525 162l57 -183l-543 -114z" />
<glyph horiz-adv-x="671" d="M-16 1610l288 200h125l291 -200l-61 -99l-285 123h-14q-17 -8 -283 -123z" />
<glyph horiz-adv-x="579" d="M98 1669q0 96 55.5 138t138.5 42t137 -42t54 -138t-55 -138t-137 -42t-137.5 42t-55.5 138zM217 1669q0 -41 17.5 -55.5t57.5 -14.5t55 13.5t15 55.5t-15 55.5t-55 13.5t-57.5 -13.5t-17.5 -54.5z" />
<glyph horiz-adv-x="727" d="M10 1735l64 98l282 -123h15l282 123l64 -98l-291 -199h-125z" />
<glyph horiz-adv-x="1038" d="M131 1552q2 230 172 230q59 0 224 -46t182 -46q29 0 49 63l8 23l129 -19q-2 -229 -168 -229q-59 0 -225 48t-180.5 48t-30 -21.5t-31.5 -66.5z" />
</font>
</defs>
</svg>
